# xmcd
#
# Track frame offsets:
#	150
#	13153
#	25913
#	39868
#	52871
#	64704
#	78598
#	89814
#	100857
#	112665
#	126226
#
# Disc length: 1918 seconds
#
# Revision: 1
# Processed by: cddbd v1.5.2PL0 Copyright (c) Steve Scherf et al.
# Submitted via: audiograbber 1.83.01
#
DISCID=83077c0b
DTITLE=Raven Desmond Songs - Best Of The Blues
DYEAR=2005
DGENRE=Blues
TTITLE0=Blues Attack
TTITLE1=Chicago The Blues Today
TTITLE2=Coming Home
TTITLE3=Double Talking Jive
TTITLE4=King Hawk
TTITLE5=Lord I Don't Miss The Honky Tonk
TTITLE6=Maxwell Street Blues
TTITLE7=Preaching To The Choir
TTITLE8=Shake It Down
TTITLE9=Slow Walking Slider
TTITLE10=The Wrong Watusi
EXTD=
EXTT0=
EXTT1=
EXTT2=
EXTT3=
EXTT4=
EXTT5=
EXTT6=
EXTT7=
EXTT8=
EXTT9=
EXTT10=
PLAYORDER=
